<mxfile host="app.diagrams.net" modified="2022-08-26T16:24:46.539Z" agent="5.0 (X11; Linux x86_64) AppleWebKit/537.36 (KHTML, like Gecko) Chrome/104.0.5112.81 Safari/537.36" etag="XGiLAlCBZDMNY0sd2K46" version="20.2.7" type="github">
  <diagram id="8ncYfvZvJupFvGLXPevh" name="Page-1">
    <mxGraphModel dx="1736" dy="1191" grid="1" gridSize="10" guides="1" tooltips="1" connect="1" arrows="1" fold="1" page="1" pageScale="1" pageWidth="850" pageHeight="1100" math="0" shadow="0">
      <root>
        <mxCell id="0" />
        <mxCell id="1" parent="0" />
        <mxCell id="IEKA7beVy0ddjrF-rcCY-2" value="Black Jack Game Model" style="text;html=1;strokeColor=none;fillColor=none;align=center;verticalAlign=middle;whiteSpace=wrap;rounded=0;fontSize=22;" parent="1" vertex="1">
          <mxGeometry x="275" y="10" width="300" height="40" as="geometry" />
        </mxCell>
        <mxCell id="ta5nsArUzucjMFqTiB17-2" value="" style="edgeStyle=orthogonalEdgeStyle;rounded=0;orthogonalLoop=1;jettySize=auto;html=1;" edge="1" parent="1" source="IEKA7beVy0ddjrF-rcCY-3" target="IEKA7beVy0ddjrF-rcCY-17">
          <mxGeometry relative="1" as="geometry" />
        </mxCell>
        <mxCell id="IEKA7beVy0ddjrF-rcCY-3" value="Generate 2 random cards for me and Bot" style="rounded=0;whiteSpace=wrap;html=1;fontSize=16;" parent="1" vertex="1">
          <mxGeometry x="310" y="140" width="230" height="60" as="geometry" />
        </mxCell>
        <mxCell id="IEKA7beVy0ddjrF-rcCY-6" value="You have 21 you lose" style="rounded=0;whiteSpace=wrap;html=1;fontSize=16;" parent="1" vertex="1">
          <mxGeometry x="531" y="440" width="109" height="50" as="geometry" />
        </mxCell>
        <mxCell id="IEKA7beVy0ddjrF-rcCY-46" value="" style="edgeStyle=orthogonalEdgeStyle;rounded=0;orthogonalLoop=1;jettySize=auto;html=1;fontSize=16;" parent="1" source="IEKA7beVy0ddjrF-rcCY-9" target="IEKA7beVy0ddjrF-rcCY-45" edge="1">
          <mxGeometry relative="1" as="geometry" />
        </mxCell>
        <mxCell id="IEKA7beVy0ddjrF-rcCY-9" value="You don&#39;t have 21" style="rounded=0;whiteSpace=wrap;html=1;fontSize=16;" parent="1" vertex="1">
          <mxGeometry x="228" y="445" width="91" height="40" as="geometry" />
        </mxCell>
        <mxCell id="IEKA7beVy0ddjrF-rcCY-34" value="" style="edgeStyle=orthogonalEdgeStyle;rounded=0;orthogonalLoop=1;jettySize=auto;html=1;fontSize=16;" parent="1" source="IEKA7beVy0ddjrF-rcCY-17" target="IEKA7beVy0ddjrF-rcCY-33" edge="1">
          <mxGeometry relative="1" as="geometry" />
        </mxCell>
        <mxCell id="IEKA7beVy0ddjrF-rcCY-17" value="Add another card for bot and player or pass" style="rounded=0;whiteSpace=wrap;html=1;fontSize=16;" parent="1" vertex="1">
          <mxGeometry x="319" y="240" width="212" height="60" as="geometry" />
        </mxCell>
        <mxCell id="IEKA7beVy0ddjrF-rcCY-40" value="" style="edgeStyle=orthogonalEdgeStyle;rounded=0;orthogonalLoop=1;jettySize=auto;html=1;fontSize=16;" parent="1" source="IEKA7beVy0ddjrF-rcCY-33" target="IEKA7beVy0ddjrF-rcCY-39" edge="1">
          <mxGeometry relative="1" as="geometry" />
        </mxCell>
        <mxCell id="IEKA7beVy0ddjrF-rcCY-33" value="Check if 21" style="rounded=0;whiteSpace=wrap;html=1;fontSize=16;" parent="1" vertex="1">
          <mxGeometry x="380" y="320" width="91" height="40" as="geometry" />
        </mxCell>
        <mxCell id="IEKA7beVy0ddjrF-rcCY-41" value="" style="edgeStyle=orthogonalEdgeStyle;rounded=0;orthogonalLoop=1;jettySize=auto;html=1;fontSize=16;" parent="1" source="IEKA7beVy0ddjrF-rcCY-39" target="IEKA7beVy0ddjrF-rcCY-9" edge="1">
          <mxGeometry relative="1" as="geometry" />
        </mxCell>
        <mxCell id="IEKA7beVy0ddjrF-rcCY-42" value="" style="edgeStyle=orthogonalEdgeStyle;rounded=0;orthogonalLoop=1;jettySize=auto;html=1;fontSize=16;" parent="1" source="IEKA7beVy0ddjrF-rcCY-39" target="IEKA7beVy0ddjrF-rcCY-6" edge="1">
          <mxGeometry relative="1" as="geometry" />
        </mxCell>
        <mxCell id="IEKA7beVy0ddjrF-rcCY-39" value="" style="shape=waypoint;sketch=0;size=6;pointerEvents=1;points=[];fillColor=default;resizable=0;rotatable=0;perimeter=centerPerimeter;snapToPoint=1;fontSize=16;rounded=0;" parent="1" vertex="1">
          <mxGeometry x="405" y="445" width="40" height="40" as="geometry" />
        </mxCell>
        <mxCell id="IEKA7beVy0ddjrF-rcCY-48" value="" style="edgeStyle=orthogonalEdgeStyle;rounded=0;orthogonalLoop=1;jettySize=auto;html=1;fontSize=16;" parent="1" source="IEKA7beVy0ddjrF-rcCY-45" target="IEKA7beVy0ddjrF-rcCY-47" edge="1">
          <mxGeometry relative="1" as="geometry" />
        </mxCell>
        <mxCell id="IEKA7beVy0ddjrF-rcCY-50" value="" style="edgeStyle=orthogonalEdgeStyle;rounded=0;orthogonalLoop=1;jettySize=auto;html=1;fontSize=16;entryX=0;entryY=0.5;entryDx=0;entryDy=0;" parent="1" source="IEKA7beVy0ddjrF-rcCY-45" target="IEKA7beVy0ddjrF-rcCY-17" edge="1">
          <mxGeometry relative="1" as="geometry">
            <mxPoint x="213.5" y="590" as="targetPoint" />
            <Array as="points">
              <mxPoint x="150" y="590" />
              <mxPoint x="150" y="270" />
            </Array>
          </mxGeometry>
        </mxCell>
        <mxCell id="IEKA7beVy0ddjrF-rcCY-45" value="" style="shape=waypoint;sketch=0;size=6;pointerEvents=1;points=[];fillColor=default;resizable=0;rotatable=0;perimeter=centerPerimeter;snapToPoint=1;fontSize=16;rounded=0;" parent="1" vertex="1">
          <mxGeometry x="253.5" y="570" width="40" height="40" as="geometry" />
        </mxCell>
        <mxCell id="IEKA7beVy0ddjrF-rcCY-47" value="Pass check who win" style="whiteSpace=wrap;html=1;fontSize=16;sketch=0;rounded=0;" parent="1" vertex="1">
          <mxGeometry x="357" y="560" width="136.5" height="60" as="geometry" />
        </mxCell>
      </root>
    </mxGraphModel>
  </diagram>
</mxfile>
